<?xml version="1.0" encoding="UTF-8"?>
<svg xmlns="http://www.w3.org/2000/svg" xmlns:xlink="http://www.w3.org/1999/xlink" viewBox="0 0 48 48" width="48px" height="48px">
<g id="surface75365319">
<rect x="0" y="0" width="48" height="48" style="fill:rgb(0%,0%,0%);fill-opacity:1;stroke:none;"/>
<path style=" stroke:none;fill-rule:nonzero;fill:rgb(91.37255%,16.470589%,17.647059%);fill-opacity:1;" d="M 10.71875 18.480469 C 10.882812 18.714844 11 18.96875 11.066406 19.25 L 11.238281 19.1875 L 10.847656 16.765625 C 10.769531 16.824219 10.6875 16.867188 10.605469 16.894531 C 10.519531 16.925781 10.457031 16.941406 10.410156 16.941406 C 10.363281 16.945312 10.308594 16.945312 10.25 16.945312 L 6.746094 16.945312 C 6.734375 16.945312 6.679688 16.945312 6.574219 16.945312 C 6.566406 16.945312 6.535156 16.945312 6.480469 16.941406 C 6.421875 16.933594 6.378906 16.925781 6.347656 16.910156 C 6.269531 16.871094 6.207031 16.820312 6.15625 16.765625 L 5.734375 19.183594 L 5.910156 19.226562 C 5.945312 19.070312 6.019531 18.878906 6.136719 18.65625 C 6.234375 18.46875 6.332031 18.328125 6.429688 18.230469 C 6.625 18.042969 6.804688 17.910156 6.972656 17.835938 C 7.140625 17.757812 7.34375 17.71875 7.574219 17.71875 L 7.574219 22.695312 C 7.574219 22.894531 7.566406 23.042969 7.554688 23.140625 C 7.535156 23.238281 7.488281 23.332031 7.40625 23.425781 C 7.269531 23.578125 7.128906 23.65625 6.976562 23.65625 C 6.941406 23.65625 6.914062 23.65625 6.894531 23.660156 L 6.894531 23.925781 L 10.097656 23.925781 L 10.097656 23.65625 C 9.972656 23.65625 9.867188 23.636719 9.785156 23.601562 C 9.703125 23.570312 9.628906 23.503906 9.558594 23.398438 C 9.492188 23.296875 9.445312 23.183594 9.425781 23.050781 C 9.402344 22.921875 9.394531 22.777344 9.394531 22.613281 C 9.394531 22.574219 9.394531 22.53125 9.394531 22.472656 L 9.386719 17.722656 C 9.667969 17.722656 9.914062 17.785156 10.128906 17.90625 C 10.339844 18.03125 10.535156 18.222656 10.71875 18.480469 Z M 10.71875 18.480469 "/>
<path style=" stroke:none;fill-rule:nonzero;fill:rgb(91.37255%,16.470589%,17.647059%);fill-opacity:1;" d="M 24.316406 23.929688 L 24.316406 23.65625 C 24.222656 23.640625 24.148438 23.609375 24.089844 23.570312 C 24.03125 23.53125 23.988281 23.476562 23.953125 23.398438 C 23.921875 23.324219 23.898438 23.246094 23.886719 23.167969 C 23.871094 23.085938 23.863281 22.988281 23.863281 22.871094 L 23.871094 18.203125 L 26.554688 21.964844 C 26.710938 22.183594 26.816406 22.355469 26.867188 22.480469 C 26.949219 22.664062 26.992188 22.855469 26.992188 23.058594 C 26.992188 23.367188 26.894531 23.558594 26.703125 23.632812 C 26.652344 23.648438 26.605469 23.660156 26.554688 23.660156 L 26.554688 23.929688 L 28.316406 23.929688 L 28.316406 23.660156 C 28.234375 23.648438 28.160156 23.621094 28.09375 23.578125 C 28.023438 23.535156 27.972656 23.476562 27.933594 23.402344 C 27.898438 23.328125 27.875 23.238281 27.863281 23.140625 C 27.851562 23.039062 27.84375 22.953125 27.84375 22.878906 L 27.84375 18.238281 C 27.84375 18.109375 27.851562 17.964844 27.871094 17.808594 C 27.886719 17.652344 27.929688 17.523438 28.003906 17.414062 C 28.058594 17.328125 28.125 17.273438 28.195312 17.25 C 28.242188 17.238281 28.289062 17.230469 28.335938 17.222656 L 28.335938 16.949219 L 26.570312 16.949219 L 26.570312 17.222656 C 26.664062 17.234375 26.742188 17.257812 26.808594 17.292969 C 26.875 17.328125 26.929688 17.386719 26.976562 17.460938 C 27.023438 17.539062 27.054688 17.609375 27.066406 17.675781 C 27.078125 17.738281 27.082031 17.835938 27.082031 17.960938 C 27.082031 17.980469 27.082031 18.007812 27.082031 18.042969 L 27.082031 19.621094 L 25.910156 17.863281 C 25.871094 17.800781 25.84375 17.753906 25.828125 17.714844 C 25.792969 17.636719 25.773438 17.5625 25.773438 17.5 C 25.773438 17.453125 25.789062 17.40625 25.816406 17.363281 C 25.84375 17.320312 25.871094 17.285156 25.898438 17.257812 C 25.929688 17.230469 25.964844 17.21875 26.003906 17.21875 L 26.003906 16.949219 L 22.660156 16.949219 L 22.660156 17.21875 C 22.804688 17.242188 22.914062 17.308594 22.996094 17.414062 C 23.035156 17.464844 23.0625 17.558594 23.078125 17.695312 C 23.097656 17.828125 23.101562 17.96875 23.101562 18.117188 C 23.101562 18.179688 23.101562 18.238281 23.101562 18.292969 L 23.101562 22.5625 C 23.101562 22.800781 23.085938 23.011719 23.050781 23.199219 C 23.015625 23.382812 22.960938 23.503906 22.886719 23.566406 C 22.867188 23.554688 22.851562 23.542969 22.835938 23.527344 C 22.789062 23.488281 22.742188 23.421875 22.691406 23.324219 C 22.675781 23.289062 22.652344 23.246094 22.628906 23.191406 L 21.105469 17.75 C 21.085938 17.664062 21.070312 17.617188 21.066406 17.609375 C 21.054688 17.5625 21.046875 17.523438 21.046875 17.484375 C 21.046875 17.449219 21.054688 17.410156 21.070312 17.375 C 21.105469 17.296875 21.171875 17.257812 21.265625 17.257812 L 21.265625 16.949219 L 18.675781 16.949219 L 18.675781 17.214844 C 18.703125 17.222656 18.730469 17.234375 18.753906 17.25 C 18.777344 17.261719 18.804688 17.292969 18.828125 17.335938 C 18.855469 17.378906 18.867188 17.433594 18.867188 17.5 C 18.867188 17.546875 18.859375 17.597656 18.84375 17.652344 C 18.828125 17.710938 18.8125 17.765625 18.792969 17.820312 L 17.171875 22.777344 C 17.125 22.933594 17.078125 23.050781 17.027344 23.136719 C 17.015625 23.15625 17.003906 23.179688 16.988281 23.199219 C 16.945312 23.097656 16.898438 22.980469 16.851562 22.84375 C 16.644531 22.21875 16.492188 21.816406 16.402344 21.636719 C 16.234375 21.304688 16.074219 21.003906 15.921875 20.734375 C 15.765625 20.46875 15.585938 20.179688 15.378906 19.867188 C 15.410156 19.867188 15.523438 19.800781 15.71875 19.664062 C 15.976562 19.484375 16.183594 19.285156 16.34375 19.074219 C 16.566406 18.769531 16.675781 18.449219 16.675781 18.105469 C 16.675781 18.066406 16.671875 18.007812 16.664062 17.921875 C 16.628906 17.605469 16.492188 17.367188 16.253906 17.199219 C 16.011719 17.03125 15.664062 16.945312 15.210938 16.945312 L 11.117188 16.945312 L 11.117188 17.21875 C 11.199219 17.21875 11.269531 17.234375 11.328125 17.269531 C 11.386719 17.304688 11.4375 17.371094 11.484375 17.464844 C 11.527344 17.554688 11.558594 17.726562 11.574219 17.972656 C 11.578125 18.050781 11.582031 18.160156 11.582031 18.304688 L 11.570312 22.871094 C 11.570312 23.027344 11.558594 23.15625 11.535156 23.253906 C 11.511719 23.351562 11.460938 23.4375 11.382812 23.511719 C 11.324219 23.566406 11.273438 23.605469 11.234375 23.625 C 11.191406 23.648438 11.136719 23.65625 11.070312 23.65625 L 11.070312 23.929688 L 13.859375 23.929688 L 13.859375 23.65625 C 13.75 23.628906 13.683594 23.609375 13.65625 23.59375 C 13.597656 23.5625 13.535156 23.5 13.472656 23.40625 C 13.425781 23.335938 13.394531 23.253906 13.378906 23.15625 C 13.359375 23.0625 13.351562 22.941406 13.351562 22.792969 L 13.351562 20.824219 L 13.660156 20.652344 C 13.777344 20.84375 13.898438 21.035156 14.015625 21.230469 C 14.136719 21.425781 14.234375 21.605469 14.3125 21.765625 C 14.574219 22.335938 14.738281 22.695312 14.796875 22.847656 C 14.882812 23.074219 14.925781 23.253906 14.925781 23.378906 C 14.925781 23.472656 14.902344 23.535156 14.855469 23.566406 C 14.769531 23.625 14.675781 23.664062 14.570312 23.679688 L 14.570312 23.929688 L 18.390625 23.929688 L 18.390625 23.671875 C 18.316406 23.65625 18.25 23.628906 18.191406 23.589844 C 18.132812 23.550781 18.078125 23.488281 18.03125 23.40625 C 18.011719 23.367188 18.003906 23.300781 18.003906 23.203125 C 18.003906 23.003906 18.027344 22.820312 18.078125 22.652344 L 18.492188 21.234375 C 18.625 21.234375 18.792969 21.257812 18.996094 21.300781 C 19.203125 21.347656 19.359375 21.394531 19.464844 21.453125 C 19.730469 21.597656 19.976562 21.8125 20.195312 22.105469 C 20.398438 22.375 20.511719 22.617188 20.539062 22.835938 C 20.546875 22.882812 20.550781 22.949219 20.550781 23.03125 C 20.550781 23.28125 20.472656 23.464844 20.316406 23.574219 C 20.265625 23.605469 20.191406 23.636719 20.089844 23.660156 L 20.089844 23.929688 Z M 14.359375 19.425781 C 14.132812 19.65625 13.871094 19.832031 13.578125 19.953125 L 13.371094 20.03125 L 13.371094 18.28125 C 13.371094 18.164062 13.386719 18.0625 13.414062 17.976562 C 13.445312 17.890625 13.496094 17.828125 13.570312 17.792969 C 13.703125 17.726562 13.847656 17.695312 13.996094 17.695312 C 14.21875 17.695312 14.402344 17.753906 14.546875 17.875 C 14.714844 18.015625 14.796875 18.203125 14.796875 18.445312 C 14.800781 18.796875 14.652344 19.121094 14.359375 19.425781 Z M 19.71875 20.644531 C 19.558594 20.546875 19.410156 20.476562 19.277344 20.429688 C 19.140625 20.382812 19.035156 20.359375 18.96875 20.351562 C 18.898438 20.347656 18.839844 20.347656 18.792969 20.347656 L 19.351562 18.386719 L 20.003906 20.855469 C 19.929688 20.789062 19.835938 20.71875 19.71875 20.644531 Z M 38.972656 23.945312 C 39.054688 23.953125 39.128906 23.96875 39.195312 23.992188 L 39.394531 24.0625 L 40.15625 21.390625 L 39.957031 21.273438 C 39.890625 21.578125 39.734375 21.898438 39.488281 22.230469 C 39.269531 22.527344 39.042969 22.757812 38.804688 22.917969 C 38.644531 23.027344 38.46875 23.113281 38.273438 23.175781 C 38.082031 23.242188 37.894531 23.273438 37.710938 23.273438 C 37.542969 23.273438 37.394531 23.246094 37.265625 23.1875 C 37.140625 23.128906 37.039062 23.042969 36.96875 22.925781 C 36.898438 22.808594 36.855469 22.699219 36.835938 22.589844 C 36.816406 22.484375 36.804688 22.355469 36.804688 22.199219 C 36.804688 22.171875 36.804688 22.136719 36.804688 22.089844 C 36.804688 22.042969 36.804688 21.984375 36.804688 21.921875 L 36.804688 19.925781 L 37.554688 19.925781 C 37.640625 19.925781 37.746094 19.957031 37.867188 20.019531 C 37.992188 20.082031 38.105469 20.164062 38.203125 20.269531 C 38.300781 20.371094 38.386719 20.511719 38.464844 20.6875 C 38.527344 20.832031 38.566406 20.949219 38.582031 21.042969 L 38.804688 21 L 38.410156 18.34375 L 38.238281 18.40625 C 38.238281 18.429688 38.238281 18.464844 38.238281 18.511719 C 38.238281 18.710938 38.171875 18.882812 38.039062 19.019531 C 37.972656 19.085938 37.902344 19.132812 37.832031 19.15625 C 37.761719 19.183594 37.683594 19.195312 37.609375 19.195312 L 36.785156 19.195312 L 36.785156 18.433594 C 36.785156 18.289062 36.804688 18.164062 36.835938 18.058594 C 36.871094 17.949219 36.929688 17.859375 37.007812 17.785156 C 37.132812 17.671875 37.328125 17.617188 37.589844 17.617188 C 37.820312 17.617188 38.058594 17.664062 38.300781 17.757812 C 38.542969 17.851562 38.75 17.988281 38.925781 18.167969 C 39.230469 18.488281 39.425781 18.878906 39.515625 19.339844 L 39.707031 19.167969 L 39.28125 16.808594 C 39.214844 16.839844 39.164062 16.859375 39.125 16.867188 C 39.117188 16.867188 39.0625 16.878906 38.964844 16.894531 C 38.777344 16.929688 38.613281 16.949219 38.46875 16.949219 C 38.417969 16.949219 38.382812 16.949219 38.363281 16.949219 L 34.507812 16.949219 L 34.507812 17.21875 C 34.59375 17.21875 34.660156 17.226562 34.707031 17.242188 C 34.753906 17.261719 34.800781 17.300781 34.847656 17.363281 C 34.894531 17.425781 34.921875 17.488281 34.929688 17.550781 C 34.941406 17.613281 34.945312 17.707031 34.945312 17.828125 C 34.945312 17.839844 34.945312 17.867188 34.945312 17.902344 L 34.945312 22.855469 C 34.945312 23 34.9375 23.117188 34.921875 23.207031 C 34.902344 23.300781 34.863281 23.386719 34.800781 23.476562 C 34.753906 23.535156 34.714844 23.578125 34.679688 23.597656 C 34.648438 23.621094 34.570312 23.640625 34.453125 23.664062 L 34.453125 23.929688 L 38.714844 23.929688 C 38.804688 23.929688 38.890625 23.933594 38.972656 23.945312 Z M 38.972656 23.945312 "/>
<path style=" stroke:none;fill-rule:nonzero;fill:rgb(91.37255%,16.470589%,17.647059%);fill-opacity:1;" d="M 33.914062 20.808594 C 33.914062 20.664062 33.921875 20.546875 33.941406 20.453125 C 33.957031 20.363281 33.996094 20.277344 34.058594 20.195312 C 34.175781 20.039062 34.316406 19.960938 34.476562 19.960938 L 34.476562 19.722656 L 31.675781 19.722656 L 31.675781 19.980469 C 31.695312 19.980469 31.726562 19.980469 31.769531 19.980469 C 31.882812 19.980469 31.980469 20.03125 32.070312 20.132812 C 32.117188 20.191406 32.152344 20.246094 32.167969 20.308594 C 32.1875 20.367188 32.195312 20.476562 32.195312 20.636719 L 32.195312 22.296875 C 32.195312 22.570312 32.144531 22.789062 32.042969 22.953125 C 31.921875 23.140625 31.734375 23.238281 31.480469 23.238281 C 30.914062 23.238281 30.453125 22.898438 30.101562 22.21875 C 29.804688 21.640625 29.652344 21.003906 29.652344 20.300781 C 29.652344 20.246094 29.652344 20.199219 29.65625 20.160156 C 29.65625 20.125 29.660156 20.085938 29.664062 20.042969 C 29.71875 19.359375 29.871094 18.800781 30.113281 18.367188 C 30.410156 17.847656 30.8125 17.589844 31.324219 17.589844 C 31.652344 17.589844 32.023438 17.703125 32.441406 17.929688 C 32.609375 18.023438 32.777344 18.191406 32.945312 18.429688 C 33.160156 18.734375 33.304688 19.003906 33.371094 19.226562 L 33.515625 19.136719 L 33.277344 16.738281 C 33.207031 16.800781 33.140625 16.867188 33.074219 16.933594 C 32.988281 16.988281 32.875 17.015625 32.738281 17.015625 C 32.617188 17.015625 32.488281 16.996094 32.34375 16.960938 C 32.0625 16.890625 31.8125 16.839844 31.59375 16.808594 C 31.378906 16.78125 31.144531 16.765625 30.894531 16.765625 C 30.433594 16.765625 30.011719 16.835938 29.625 16.972656 C 29.238281 17.109375 28.902344 17.324219 28.609375 17.621094 C 28.390625 17.851562 28.214844 18.105469 28.074219 18.386719 L 28.074219 21.910156 C 28.171875 22.136719 28.285156 22.347656 28.414062 22.546875 C 28.773438 23.089844 29.214844 23.46875 29.730469 23.675781 C 30.148438 23.84375 30.707031 23.929688 31.40625 23.929688 L 34.328125 23.929688 L 34.328125 23.664062 C 34.238281 23.636719 34.164062 23.605469 34.117188 23.570312 C 34.066406 23.535156 34.023438 23.476562 33.984375 23.390625 C 33.945312 23.308594 33.921875 23.226562 33.914062 23.148438 C 33.914062 23.058594 33.914062 22.972656 33.914062 22.882812 Z M 0.449219 25.523438 C 0.488281 25.515625 0.539062 25.511719 0.597656 25.511719 C 1.035156 25.578125 1.460938 25.648438 1.882812 25.71875 C 2.300781 25.789062 2.675781 25.824219 3.011719 25.824219 C 3.433594 25.824219 4.25 25.730469 4.710938 25.546875 C 5.273438 25.316406 5.671875 24.996094 6.011719 24.582031 C 6.425781 24.074219 6.644531 23.46875 6.644531 22.753906 C 6.644531 22.214844 6.523438 21.679688 6.226562 21.222656 C 6.097656 21.03125 5.929688 20.867188 5.742188 20.734375 C 5.394531 20.496094 5 20.34375 4.605469 20.203125 C 4.152344 20.046875 3.703125 19.878906 3.253906 19.710938 C 2.9375 19.59375 2.613281 19.53125 2.367188 19.277344 C 2.003906 18.910156 2.105469 18.304688 2.433594 17.949219 C 2.589844 17.785156 2.855469 17.65625 3.070312 17.605469 C 3.855469 17.421875 4.414062 17.785156 5.136719 18.484375 C 5.304688 18.652344 5.484375 19.023438 5.484375 19.023438 L 5.886719 16.769531 C 5.839844 16.800781 5.648438 16.925781 5.566406 16.988281 C 5.410156 17.109375 5.152344 16.953125 5 16.898438 C 4.792969 16.824219 4.582031 16.757812 4.367188 16.707031 C 3.9375 16.605469 3.496094 16.554688 3.050781 16.554688 C 2.703125 16.554688 2.324219 16.578125 1.988281 16.65625 C 1.738281 16.714844 1.476562 16.839844 1.257812 16.96875 C 0.542969 17.378906 0.203125 18.109375 0.0507812 18.886719 C -0.0429688 19.363281 -0.015625 19.855469 0.179688 20.304688 C 0.457031 20.941406 0.949219 21.480469 1.597656 21.75 L 3.800781 22.484375 C 3.960938 22.535156 4.144531 22.691406 4.242188 22.828125 C 4.59375 23.3125 4.425781 24.117188 3.992188 24.492188 C 3.316406 25.085938 2.097656 24.867188 1.433594 24.363281 C 1.066406 24.089844 0.871094 23.675781 0.71875 23.257812 C 0.707031 23.234375 0.542969 22.773438 0.550781 22.773438 C 0.550781 22.773438 0.222656 22.773438 0.222656 22.773438 L 0 25.824219 C 0.0507812 25.777344 0.257812 25.644531 0.3125 25.601562 C 0.363281 25.558594 0.410156 25.53125 0.449219 25.523438 Z M 45.949219 21.714844 C 45.753906 21.371094 45.523438 21 45.261719 20.601562 C 45.300781 20.601562 45.445312 20.515625 45.691406 20.34375 C 46.023438 20.109375 46.289062 19.855469 46.492188 19.582031 C 46.777344 19.195312 46.917969 18.78125 46.917969 18.339844 C 46.917969 18.292969 46.914062 18.214844 46.902344 18.109375 C 46.859375 17.703125 46.683594 17.394531 46.375 17.179688 C 46.070312 16.964844 45.625 16.859375 45.042969 16.859375 L 39.8125 16.859375 L 39.8125 17.207031 C 39.917969 17.207031 40.007812 17.230469 40.082031 17.273438 C 40.15625 17.320312 40.222656 17.402344 40.277344 17.519531 C 40.335938 17.640625 40.375 17.855469 40.394531 18.171875 C 40.398438 18.273438 40.402344 18.414062 40.402344 18.601562 L 40.386719 24.453125 C 40.386719 24.652344 40.371094 24.816406 40.34375 24.941406 C 40.3125 25.066406 40.246094 25.179688 40.148438 25.273438 C 40.074219 25.347656 40.011719 25.394531 39.957031 25.421875 C 39.90625 25.449219 39.839844 25.460938 39.753906 25.460938 L 39.753906 25.808594 L 43.316406 25.808594 L 43.316406 25.460938 C 43.179688 25.425781 43.089844 25.398438 43.058594 25.378906 C 42.980469 25.339844 42.90625 25.257812 42.824219 25.140625 C 42.765625 25.050781 42.722656 24.945312 42.703125 24.820312 C 42.679688 24.699219 42.667969 24.542969 42.667969 24.351562 L 42.667969 21.828125 L 43.0625 21.605469 C 43.214844 21.851562 43.363281 22.097656 43.515625 22.347656 C 43.667969 22.597656 43.792969 22.828125 43.894531 23.035156 C 44.230469 23.765625 44.4375 24.226562 44.511719 24.421875 C 44.621094 24.714844 44.675781 24.941406 44.675781 25.101562 C 44.675781 25.222656 44.648438 25.304688 44.585938 25.34375 C 44.476562 25.421875 44.355469 25.46875 44.222656 25.488281 L 44.222656 25.808594 L 47.984375 25.808594 L 47.984375 25.507812 C 47.847656 25.476562 47.730469 25.4375 47.636719 25.390625 C 47.507812 25.324219 47.339844 25 47.140625 24.414062 C 46.871094 23.617188 46.679688 23.101562 46.566406 22.871094 C 46.351562 22.441406 46.148438 22.054688 45.949219 21.714844 Z M 43.953125 20.03125 C 43.664062 20.332031 43.328125 20.558594 42.949219 20.714844 L 42.691406 20.8125 L 42.691406 18.566406 C 42.691406 18.417969 42.707031 18.289062 42.746094 18.179688 C 42.78125 18.066406 42.847656 17.988281 42.945312 17.941406 C 43.113281 17.859375 43.296875 17.816406 43.488281 17.816406 C 43.773438 17.816406 44.007812 17.894531 44.191406 18.046875 C 44.40625 18.226562 44.511719 18.472656 44.511719 18.78125 C 44.511719 19.226562 44.324219 19.644531 43.953125 20.03125 Z M 12.65625 25.199219 C 12.578125 25.257812 12.496094 25.300781 12.414062 25.328125 C 12.328125 25.359375 12.265625 25.375 12.21875 25.378906 C 12.171875 25.382812 12.117188 25.382812 12.058594 25.382812 L 8.554688 25.382812 C 8.539062 25.382812 8.484375 25.382812 8.382812 25.382812 C 8.375 25.382812 8.34375 25.378906 8.289062 25.375 C 8.230469 25.371094 8.1875 25.359375 8.15625 25.347656 C 8.078125 25.304688 8.015625 25.257812 7.964844 25.199219 L 7.542969 27.640625 L 7.71875 27.679688 C 7.753906 27.523438 7.828125 27.328125 7.945312 27.105469 C 8.042969 26.914062 8.140625 26.773438 8.238281 26.675781 C 8.433594 26.488281 8.613281 26.355469 8.78125 26.277344 C 8.949219 26.199219 9.148438 26.160156 9.382812 26.160156 L 9.382812 31.175781 C 9.382812 31.378906 9.375 31.527344 9.359375 31.625 C 9.34375 31.722656 9.296875 31.820312 9.214844 31.914062 C 9.078125 32.066406 8.933594 32.144531 8.78125 32.144531 C 8.746094 32.144531 8.71875 32.148438 8.699219 32.152344 L 8.699219 32.417969 L 11.902344 32.417969 L 11.902344 32.144531 C 11.777344 32.144531 11.675781 32.128906 11.59375 32.09375 C 11.511719 32.058594 11.433594 31.988281 11.367188 31.886719 C 11.300781 31.78125 11.253906 31.664062 11.234375 31.535156 C 11.210938 31.402344 11.199219 31.253906 11.199219 31.09375 C 11.199219 31.054688 11.199219 31.007812 11.199219 30.953125 L 11.195312 26.160156 C 11.476562 26.160156 11.722656 26.222656 11.933594 26.347656 C 12.144531 26.472656 12.34375 26.664062 12.527344 26.929688 C 12.691406 27.160156 12.804688 27.421875 12.871094 27.699219 L 13.046875 27.636719 Z M 12.65625 25.199219 "/>
<path style=" stroke:none;fill-rule:nonzero;fill:rgb(91.37255%,16.470589%,17.647059%);fill-opacity:1;" d="M 16.527344 25.949219 C 16.597656 25.964844 16.652344 25.972656 16.6875 25.984375 C 16.785156 26.015625 16.851562 26.058594 16.886719 26.113281 C 16.9375 26.195312 16.976562 26.28125 16.996094 26.378906 C 17.019531 26.472656 17.027344 26.644531 17.027344 26.890625 L 17.027344 27.515625 L 15.273438 27.515625 L 15.273438 26.867188 C 15.273438 26.554688 15.335938 26.304688 15.457031 26.117188 C 15.5 26.054688 15.558594 26.011719 15.632812 25.984375 C 15.707031 25.960938 15.765625 25.949219 15.8125 25.949219 L 15.8125 25.683594 L 12.984375 25.683594 L 12.984375 25.949219 C 13.074219 25.960938 13.148438 25.984375 13.207031 26.011719 C 13.265625 26.042969 13.320312 26.09375 13.367188 26.171875 C 13.414062 26.246094 13.441406 26.320312 13.453125 26.390625 C 13.464844 26.464844 13.472656 26.574219 13.472656 26.726562 C 13.472656 26.742188 13.472656 26.773438 13.472656 26.820312 L 13.484375 31.277344 C 13.484375 31.425781 13.464844 31.585938 13.425781 31.75 C 13.386719 31.914062 13.347656 32.019531 13.308594 32.058594 C 13.234375 32.132812 13.183594 32.175781 13.152344 32.191406 C 13.121094 32.207031 13.070312 32.226562 12.992188 32.242188 L 12.992188 32.503906 L 15.796875 32.503906 L 15.796875 32.238281 C 15.636719 32.238281 15.503906 32.167969 15.398438 32.027344 C 15.34375 31.949219 15.308594 31.875 15.296875 31.800781 C 15.28125 31.730469 15.273438 31.628906 15.273438 31.503906 L 15.273438 28.210938 L 17.015625 28.210938 L 17.015625 31.515625 C 17.015625 31.625 17.007812 31.722656 16.992188 31.804688 C 16.972656 31.890625 16.941406 31.964844 16.894531 32.03125 C 16.796875 32.167969 16.664062 32.238281 16.5 32.238281 L 16.5 32.503906 L 19.347656 32.503906 L 19.347656 32.238281 C 19.199219 32.238281 19.082031 32.1875 18.996094 32.085938 C 18.953125 32.03125 18.921875 31.949219 18.898438 31.839844 C 18.878906 31.726562 18.867188 31.605469 18.867188 31.476562 L 18.855469 26.847656 C 18.855469 26.695312 18.863281 26.566406 18.882812 26.457031 C 18.898438 26.347656 18.933594 26.25 18.988281 26.15625 C 19.046875 26.066406 19.113281 26.007812 19.199219 25.980469 C 19.253906 25.972656 19.304688 25.960938 19.359375 25.945312 L 19.359375 25.683594 L 16.53125 25.683594 L 16.53125 25.949219 Z M 19.671875 25.949219 C 19.78125 25.96875 19.863281 25.988281 19.921875 26.015625 C 19.980469 26.039062 20.027344 26.078125 20.058594 26.125 C 20.117188 26.21875 20.152344 26.320312 20.171875 26.433594 C 20.1875 26.546875 20.191406 26.699219 20.191406 26.894531 L 20.191406 31.496094 C 20.191406 31.609375 20.183594 31.707031 20.167969 31.789062 C 20.148438 31.871094 20.113281 31.945312 20.0625 32.015625 C 19.957031 32.164062 19.828125 32.238281 19.671875 32.238281 L 19.671875 32.507812 L 22.519531 32.507812 L 22.519531 32.238281 C 22.445312 32.238281 22.378906 32.222656 22.316406 32.1875 C 22.257812 32.15625 22.207031 32.113281 22.164062 32.0625 C 22.121094 32.011719 22.089844 31.933594 22.066406 31.820312 C 22.046875 31.710938 22.035156 31.589844 22.035156 31.457031 L 22.035156 26.875 C 22.035156 26.707031 22.042969 26.570312 22.058594 26.464844 C 22.070312 26.355469 22.105469 26.261719 22.160156 26.175781 C 22.199219 26.109375 22.238281 26.0625 22.28125 26.035156 C 22.324219 26.003906 22.40625 25.976562 22.53125 25.949219 L 22.53125 25.683594 L 19.671875 25.683594 Z M 28.121094 31.988281 C 28.082031 31.914062 28.058594 31.828125 28.046875 31.734375 C 28.035156 31.636719 28.03125 31.550781 28.03125 31.476562 L 28.03125 26.945312 C 28.03125 26.816406 28.039062 26.675781 28.054688 26.523438 C 28.074219 26.371094 28.117188 26.246094 28.1875 26.140625 C 28.246094 26.054688 28.3125 26 28.382812 25.976562 C 28.429688 25.96875 28.476562 25.960938 28.523438 25.949219 L 28.523438 25.683594 L 26.75 25.683594 L 26.75 25.949219 C 26.84375 25.964844 26.925781 25.988281 26.992188 26.023438 C 27.054688 26.054688 27.113281 26.109375 27.160156 26.1875 C 27.207031 26.261719 27.238281 26.328125 27.25 26.394531 C 27.261719 26.457031 27.265625 26.550781 27.265625 26.671875 C 27.265625 26.691406 27.265625 26.71875 27.265625 26.753906 L 27.265625 28.296875 L 26.085938 26.578125 C 26.046875 26.519531 26.019531 26.472656 26.003906 26.433594 C 25.96875 26.359375 25.953125 26.285156 25.953125 26.222656 C 25.953125 26.179688 25.964844 26.132812 25.992188 26.089844 C 26.019531 26.046875 26.050781 26.015625 26.078125 25.988281 C 26.105469 25.964844 26.140625 25.949219 26.179688 25.949219 L 26.179688 25.683594 L 22.824219 25.683594 L 22.824219 25.949219 C 22.96875 25.972656 23.082031 26.035156 23.164062 26.140625 C 23.203125 26.191406 23.230469 26.28125 23.246094 26.414062 C 23.261719 26.546875 23.269531 26.683594 23.269531 26.828125 C 23.269531 26.886719 23.269531 26.945312 23.269531 27 L 23.269531 31.171875 C 23.269531 31.402344 23.25 31.609375 23.214844 31.796875 C 23.179688 31.980469 23.121094 32.101562 23.039062 32.160156 C 22.992188 32.191406 22.957031 32.210938 22.929688 32.21875 C 22.902344 32.222656 22.851562 32.230469 22.773438 32.242188 L 22.773438 32.507812 L 24.484375 32.507812 L 24.484375 32.238281 C 24.390625 32.222656 24.316406 32.191406 24.257812 32.15625 C 24.199219 32.117188 24.152344 32.0625 24.121094 31.988281 C 24.089844 31.914062 24.066406 31.839844 24.050781 31.761719 C 24.035156 31.679688 24.03125 31.582031 24.03125 31.472656 L 24.035156 26.910156 L 26.730469 30.585938 C 26.886719 30.800781 26.992188 30.96875 27.046875 31.089844 C 27.128906 31.265625 27.171875 31.453125 27.171875 31.65625 C 27.171875 31.953125 27.074219 32.140625 26.882812 32.214844 C 26.832031 32.230469 26.78125 32.238281 26.730469 32.238281 L 26.730469 32.503906 L 28.503906 32.503906 L 28.503906 32.238281 C 28.421875 32.230469 28.347656 32.203125 28.277344 32.160156 C 28.210938 32.117188 28.15625 32.058594 28.121094 31.988281 Z M 38.921875 28.457031 L 37.511719 27.933594 C 37.265625 27.839844 37.082031 27.722656 36.964844 27.578125 C 36.871094 27.460938 36.824219 27.324219 36.824219 27.175781 C 36.824219 27.074219 36.839844 26.980469 36.863281 26.890625 C 36.882812 26.835938 36.90625 26.773438 36.941406 26.699219 C 36.996094 26.582031 37.078125 26.492188 37.191406 26.4375 C 37.304688 26.378906 37.441406 26.351562 37.59375 26.351562 C 37.769531 26.351562 37.953125 26.386719 38.144531 26.460938 C 38.335938 26.535156 38.507812 26.628906 38.65625 26.746094 C 38.839844 26.890625 39.007812 27.136719 39.164062 27.476562 C 39.230469 27.617188 39.273438 27.722656 39.28125 27.789062 L 39.492188 27.714844 L 39.292969 25.5 C 39.253906 25.523438 39.199219 25.558594 39.128906 25.609375 C 39.035156 25.664062 38.945312 25.703125 38.859375 25.730469 C 38.847656 25.734375 38.828125 25.738281 38.796875 25.738281 C 38.527344 25.679688 38.269531 25.621094 38.019531 25.5625 C 37.769531 25.503906 37.542969 25.472656 37.339844 25.472656 C 37.183594 25.472656 37.035156 25.488281 36.894531 25.519531 C 36.3125 25.65625 35.847656 25.910156 35.488281 26.277344 C 35.089844 26.691406 34.890625 27.195312 34.890625 27.789062 C 34.890625 28.222656 35.003906 28.589844 35.230469 28.894531 C 35.4375 29.171875 35.726562 29.378906 36.101562 29.519531 L 37.648438 30.113281 C 37.789062 30.167969 37.902344 30.257812 37.988281 30.382812 C 38.070312 30.507812 38.113281 30.652344 38.113281 30.824219 C 38.113281 30.894531 38.109375 30.953125 38.101562 30.992188 C 38.054688 31.265625 37.925781 31.476562 37.714844 31.628906 C 37.503906 31.777344 37.25 31.851562 36.953125 31.851562 C 36.683594 31.851562 36.40625 31.785156 36.121094 31.648438 C 35.835938 31.511719 35.59375 31.316406 35.382812 31.0625 C 35.238281 30.886719 35.113281 30.644531 35.003906 30.339844 C 34.914062 30.105469 34.867188 29.917969 34.855469 29.78125 L 34.644531 29.808594 L 34.871094 32.628906 C 34.914062 32.59375 34.960938 32.558594 35.003906 32.523438 C 35.050781 32.488281 35.089844 32.46875 35.121094 32.460938 C 35.15625 32.453125 35.199219 32.453125 35.25 32.453125 C 35.621094 32.507812 35.984375 32.5625 36.339844 32.613281 C 36.695312 32.667969 37.019531 32.695312 37.304688 32.695312 C 37.660156 32.695312 38.035156 32.625 38.425781 32.480469 C 38.902344 32.300781 39.285156 32.050781 39.574219 31.730469 C 39.925781 31.332031 40.101562 30.859375 40.101562 30.304688 C 40.101562 29.84375 39.996094 29.453125 39.789062 29.140625 C 39.582031 28.824219 39.292969 28.597656 38.921875 28.457031 Z M 38.921875 28.457031 "/>
<path style=" stroke:none;fill-rule:nonzero;fill:rgb(91.37255%,16.470589%,17.647059%);fill-opacity:1;" d="M 34.246094 31.96875 C 34.207031 31.886719 34.183594 31.804688 34.175781 31.726562 C 34.175781 31.636719 34.175781 31.550781 34.175781 31.460938 L 34.175781 29.386719 C 34.175781 29.242188 34.1875 29.121094 34.203125 29.03125 C 34.222656 28.9375 34.261719 28.851562 34.324219 28.773438 C 34.441406 28.613281 34.578125 28.535156 34.738281 28.535156 L 34.738281 28.296875 L 31.9375 28.296875 L 31.9375 28.554688 C 31.957031 28.554688 31.988281 28.554688 32.03125 28.554688 C 32.144531 28.554688 32.246094 28.605469 32.335938 28.707031 C 32.382812 28.765625 32.414062 28.824219 32.433594 28.882812 C 32.449219 28.941406 32.457031 29.050781 32.457031 29.210938 L 32.457031 30.871094 C 32.457031 31.148438 32.40625 31.363281 32.304688 31.527344 C 32.183594 31.71875 31.996094 31.8125 31.746094 31.8125 C 31.175781 31.8125 30.714844 31.472656 30.367188 30.792969 C 30.066406 30.21875 29.914062 29.578125 29.914062 28.875 C 29.914062 28.820312 29.917969 28.773438 29.917969 28.738281 C 29.921875 28.699219 29.925781 28.660156 29.929688 28.617188 C 29.980469 27.933594 30.132812 27.375 30.378906 26.945312 C 30.675781 26.421875 31.078125 26.164062 31.589844 26.164062 C 31.914062 26.164062 32.285156 26.277344 32.703125 26.507812 C 32.871094 26.597656 33.039062 26.765625 33.207031 27.003906 C 33.425781 27.3125 33.566406 27.578125 33.632812 27.800781 L 33.78125 27.710938 L 33.539062 25.3125 C 33.472656 25.375 33.402344 25.441406 33.335938 25.507812 C 33.25 25.5625 33.140625 25.589844 33.003906 25.589844 C 32.882812 25.589844 32.75 25.570312 32.605469 25.535156 C 32.324219 25.464844 32.074219 25.414062 31.859375 25.382812 C 31.640625 25.355469 31.40625 25.339844 31.15625 25.339844 C 30.695312 25.339844 30.273438 25.40625 29.890625 25.546875 C 29.503906 25.683594 29.164062 25.898438 28.871094 26.195312 C 28.652344 26.425781 28.476562 26.679688 28.339844 26.957031 L 28.339844 30.484375 C 28.433594 30.707031 28.546875 30.921875 28.679688 31.121094 C 29.035156 31.664062 29.476562 32.042969 29.992188 32.25 C 30.410156 32.417969 30.96875 32.503906 31.671875 32.503906 L 34.59375 32.503906 L 34.59375 32.238281 C 34.5 32.207031 34.429688 32.179688 34.378906 32.144531 C 34.328125 32.113281 34.285156 32.054688 34.246094 31.96875 Z M 0 27.082031 L 7 27.082031 L 7 27.71875 L 0 27.71875 Z M 40 27.082031 L 48 27.082031 L 48 27.71875 L 40 27.71875 Z M 0 15.304688 L 46.980469 15.304688 L 46.980469 15.882812 L 0 15.882812 Z M 0 15.304688 "/>
</g>
</svg>
